<?xml version="1.0" standalone="no"?>
<!DOCTYPE svg PUBLIC "-//W3C//DTD SVG 20010904//EN"
 "http://www.w3.org/TR/2001/REC-SVG-20010904/DTD/svg10.dtd">
<svg version="1.0" xmlns="http://www.w3.org/2000/svg"
 width="512.000000pt" height="512.000000pt" viewBox="0 0 512.000000 512.000000"
 preserveAspectRatio="xMidYMid meet">

<g transform="translate(0.000000,512.000000) scale(0.100000,-0.100000)"
fill="#000000" stroke="none">
<path d="M555 5110 c-261 -39 -463 -220 -531 -475 -18 -67 -19 -144 -19 -2075
0 -1931 1 -2008 19 -2075 61 -227 214 -384 446 -457 l75 -23 2010 0 c1943 0
2012 1 2080 19 230 62 399 231 461 461 18 67 19 143 19 2075 0 1938 -1 2007
-19 2075 -61 224 -217 385 -444 458 l-67 22 -1990 1 c-1094 1 -2012 -2 -2040
-6z m1497 -683 c68 -33 143 -114 161 -172 9 -31 12 -390 12 -1570 0 -1469 -1
-1531 -19 -1567 -28 -58 -89 -121 -147 -153 l-54 -30 -534 -3 c-605 -3 -601
-4 -693 71 -35 29 -63 63 -83 103 l-30 59 0 1530 0 1530 23 46 c46 93 123 157
216 180 17 4 270 7 561 6 l530 -2 57 -28z m2223 3 c28 -13 68 -43 90 -65 22
-22 52 -62 65 -90 l25 -50 0 -890 0 -890 -30 -59 c-20 -40 -48 -74 -83 -103
-92 -75 -88 -74 -693 -71 l-534 3 -54 30 c-58 32 -119 95 -147 153 -18 35 -19
84 -22 902 -2 649 0 880 9 924 20 97 96 178 202 217 49 18 83 19 587 16 l535
-2 50 -25z"/>
</g>
</svg>
