<?xml version="1.0" standalone="no"?>
<!DOCTYPE svg PUBLIC "-//W3C//DTD SVG 20010904//EN"
 "http://www.w3.org/TR/2001/REC-SVG-20010904/DTD/svg10.dtd">
<svg version="1.0" xmlns="http://www.w3.org/2000/svg"
 width="512.000000pt" height="512.000000pt" viewBox="0 0 512.000000 512.000000"
 preserveAspectRatio="xMidYMid meet">

<g transform="translate(0.000000,512.000000) scale(0.100000,-0.100000)"
fill="#000000" stroke="none">
<path d="M2370 5113 c-371 -35 -653 -114 -961 -269 -406 -203 -782 -548 -1029
-944 -179 -286 -309 -655 -362 -1025 -17 -118 -17 -512 0 -630 42 -295 120
-553 242 -800 137 -280 272 -468 494 -691 221 -220 412 -357 681 -489 188 -92
309 -137 500 -185 500 -126 1002 -102 1490 71 149 53 407 182 540 271 299 199
573 480 769 788 72 113 188 353 235 486 235 662 194 1372 -115 1993 -124 250
-263 447 -458 648 -216 224 -428 378 -711 518 -296 146 -572 225 -900 255
-102 9 -333 11 -415 3z m848 -1488 c67 -27 72 -47 72 -269 0 -131 4 -196 11
-196 5 0 143 77 304 170 336 194 349 198 411 136 l34 -34 0 -872 0 -872 -34
-34 c-62 -62 -75 -58 -411 136 -161 94 -299 170 -304 170 -8 0 -11 -66 -11
-199 0 -188 -1 -200 -22 -226 -45 -57 -2 -55 -1087 -55 -1098 0 -1058 -2
-1094 59 -16 27 -17 106 -17 1023 0 916 1 995 17 1018 18 27 37 42 68 52 11 3
471 6 1022 7 878 1 1007 -1 1041 -14z"/>
<path d="M1305 3388 c-3 -7 -4 -384 -3 -838 l3 -825 873 -3 872 -2 0 840 0
840 -870 0 c-687 0 -872 -3 -875 -12z"/>
<path d="M3550 3022 l-255 -148 0 -314 0 -314 255 -148 c140 -81 258 -148 263
-148 4 0 7 275 7 610 0 336 -3 610 -7 610 -5 0 -123 -67 -263 -148z"/>
</g>
</svg>
